<?xml version="1.0" encoding="utf-8"?>
<!-- Generator: Adobe Illustrator 16.0.0, SVG Export Plug-In . SVG Version: 6.00 Build 0)  -->
<!DOCTYPE svg PUBLIC "-//W3C//DTD SVG 1.1//EN" "http://www.w3.org/Graphics/SVG/1.1/DTD/svg11.dtd">
<svg version="1.1" xmlns="http://www.w3.org/2000/svg" xmlns:xlink="http://www.w3.org/1999/xlink" x="0px" y="0px"
	 width="87.996px" height="88px" viewBox="0 0 87.996 88" enable-background="new 0 0 87.996 88" xml:space="preserve">
<g id="Layer_2" display="none">
	<rect x="-63.799" y="-116.844" display="inline" fill="#58595B" width="853" height="550"/>
</g>
<g id="Layer_1">
	<g>
		<circle fill="#00BFB1" cx="43.998" cy="44" r="43.558"/>
		<g>
			<g>
				<circle fill="#FFFFFF" cx="32.476" cy="33.197" r="11.88"/>
				<path fill="#00BFB1" d="M38.556,31.712h-4.595v-4.595c0-0.821-0.666-1.486-1.485-1.486c-0.821,0-1.485,0.665-1.485,1.486v4.595
					h-4.596c-0.818,0-1.484,0.665-1.484,1.485c0,0.819,0.666,1.484,1.484,1.484h4.596v4.594c0,0.822,0.664,1.485,1.485,1.485
					c0.819,0,1.485-0.663,1.485-1.485v-4.594h4.595c0.819,0,1.485-0.665,1.485-1.484C40.041,32.377,39.375,31.712,38.556,31.712z"/>
			</g>
			<path fill="#FFFFFF" d="M46.518,58.037v4.354h1.437v-4.354c4.202-0.365,7.499-3.886,7.499-8.182c0-4.297-3.297-7.814-7.499-8.18
				V37.32h-1.042c-0.11,0.473-0.241,0.938-0.395,1.393v2.963c-0.535,0.046-1.055,0.145-1.555,0.289
				c-1.362,2.149-3.24,3.937-5.475,5.174c-0.297,0.851-0.469,1.763-0.469,2.717C39.02,54.151,42.316,57.672,46.518,58.037z
				 M47.954,52.091c0.948-0.306,1.64-1.187,1.64-2.235s-0.691-1.929-1.64-2.234V43.6c3.136,0.358,5.582,3.024,5.582,6.256
				c0,3.23-2.446,5.898-5.582,6.258V52.091z M46.518,43.6v4.021c-0.949,0.306-1.639,1.186-1.639,2.234s0.689,1.93,1.639,2.235v4.022
				c-3.137-0.359-5.582-3.027-5.582-6.258C40.936,46.624,43.381,43.958,46.518,43.6z M47.268,35.006
				c-0.057,0.739-0.16,1.463-0.316,2.17h15.312v7.85h-2.601v9.662h2.601v7.851H32.209v-7.851h2.35v-5.859
				c-0.789,0.125-1.59,0.209-2.414,0.209c-0.715,0-1.414-0.067-2.104-0.163v15.832H64.43v-29.7H47.268z"/>
		</g>
	</g>
</g>
</svg>
