<?xml version="1.0" encoding="utf-8"?>
<!-- Generator: Adobe Illustrator 16.0.0, SVG Export Plug-In . SVG Version: 6.00 Build 0)  -->
<!DOCTYPE svg PUBLIC "-//W3C//DTD SVG 1.1//EN" "http://www.w3.org/Graphics/SVG/1.1/DTD/svg11.dtd">
<svg version="1.1" xmlns="http://www.w3.org/2000/svg" xmlns:xlink="http://www.w3.org/1999/xlink" x="0px" y="0px"
	 width="87.996px" height="88px" viewBox="0 0 87.996 88" enable-background="new 0 0 87.996 88" xml:space="preserve">
<g id="Layer_2" display="none">
	<rect x="-197.204" y="-116.846" display="inline" fill="#58595B" width="853" height="550"/>
</g>
<g id="Layer_1">
	<circle fill="#00BFB1" cx="43.999" cy="44" r="43.558"/>
	<g>
		<path fill-rule="evenodd" clip-rule="evenodd" fill="#FFFFFF" d="M65.043,63.388c-0.352-0.031-0.736-0.031-1.154-0.031
			c-0.576,0-1.088,0.031-1.6,0.031l0.512,2.885c0,0.129,0.127,0.191,0.256,0.191h2.531c0.129,0,0.225-0.063,0.258-0.191l0.576-2.885
			h-0.449C65.686,63.388,65.363,63.388,65.043,63.388L65.043,63.388z M64.787,44.993c-0.994,0-0.898,2.98-2.98,3.717
			c-1.025,0.387-1.986,0.514-2.852,0.514c-1.506,0-2.66-0.447-3.107-0.865c-0.674-0.641,5.479-2.723,4.164-4.52l-2.02-2.689
			c-0.127-0.193-0.352-0.289-0.543-0.289c-0.16,0-0.289,0.031-0.416,0.127l-6.764,4.967c0,0-2.594,0-3.043,1.508
			c0,0-0.064,0-0.193,0c-0.543,0-2.084,0.127-2.5,1.379c0,0-6.408,1.281-10.221,3.332c-3.814,2.051-9.648,1.922-9.648,5.158
			c0,3.27,5.16,5.447,9.264,5.447c4.102,0,24.643-0.639,27.527-0.799c0.609-0.033,1.186-0.033,1.73-0.033c0.768,0,1.475,0,2.082,0
			c2.178,0,3.301-0.255,3.332-2.755c0.064-3.687,0.514-9.392-2.307-12.948C65.588,45.347,65.107,44.993,64.787,44.993L64.787,44.993
			z M49.758,62.331l-3.557-0.033c-0.064,0-0.129-0.031-0.16-0.063l-9.133-8.268c-0.16-0.16-0.098-0.385,0.096-0.449l2.563-0.674
			c0.064-0.031,0.16,0,0.225,0.033l10.16,9.004C50.109,62.042,49.982,62.331,49.758,62.331L49.758,62.331z M55.91,60.536
			l-3.588-0.031c-0.064,0-0.131-0.033-0.16-0.066l-9.135-8.299c-0.127-0.129-0.096-0.352,0.096-0.416l2.564-0.705
			c0.096,0,0.16,0,0.225,0.063l10.158,9.006C56.23,60.247,56.135,60.536,55.91,60.536L55.91,60.536z M62.031,59.093l-3.59-0.063
			c-0.063,0-0.096,0-0.16-0.064l-9.133-8.268c-0.127-0.129-0.064-0.354,0.129-0.416l2.531-0.705c0.096,0,0.191,0,0.256,0.063
			l10.127,9.006C62.383,58.806,62.256,59.093,62.031,59.093L62.031,59.093z M29.953,63.612l0.578,3.109
			c0,0.096,0.127,0.191,0.225,0.191h2.563c0.096,0,0.225-0.096,0.225-0.191l0.545-2.563c-1.379-0.065-2.789-0.321-4.07-0.737
			C29.953,63.483,29.953,63.55,29.953,63.612L29.953,63.612z M36.33,66.722c0.031,0.096,0.129,0.191,0.256,0.191h2.533
			c0.129,0,0.223-0.096,0.256-0.191l0.514-2.629c-1.604,0.032-2.98,0.065-4.008,0.096L36.33,66.722z M56.039,66.304
			c0,0.129,0.127,0.225,0.225,0.225h2.563c0.096,0,0.191-0.096,0.225-0.225l0.576-2.787c-1.121,0.033-2.531,0.096-4.068,0.129
			L56.039,66.304z"/>
		<g>
			<circle fill="#FFFFFF" cx="31.332" cy="33.087" r="12"/>
			<path fill="#00BFB1" d="M37.475,31.585h-4.641v-4.64c0-0.829-0.674-1.502-1.502-1.502c-0.83,0-1.498,0.673-1.498,1.502v4.64
				h-4.643c-0.828,0-1.502,0.674-1.502,1.502s0.674,1.499,1.502,1.499h4.643v4.641c0,0.831,0.668,1.501,1.498,1.501
				c0.828,0,1.502-0.67,1.502-1.501v-4.641h4.641c0.826,0,1.5-0.671,1.5-1.499S38.301,31.585,37.475,31.585z"/>
		</g>
	</g>
</g>
</svg>
